<svg width="12" height="12" viewBox="0 0 12 12" fill="none" xmlns="http://www.w3.org/2000/svg">
<g clip-path="url(#clip0_1_416)">
<path d="M8.62728 1.58167H3.99555C2.71654 1.58167 1.67969 2.61255 1.67969 3.88421V8.4893C1.67969 9.76096 2.71654 10.7918 3.99555 10.7918H8.62728C9.9063 10.7918 10.9431 9.76096 10.9431 8.4893V3.88421C10.9431 2.61255 9.9063 1.58167 8.62728 1.58167Z" stroke="#E3010F" stroke-width="1.23542" stroke-linecap="round" stroke-linejoin="round"/>
<path d="M8.16386 5.89692C8.22102 6.28017 8.15518 6.67159 7.9757 7.0155C7.79622 7.35941 7.51224 7.63829 7.16416 7.81248C6.81608 7.98667 6.42161 8.04731 6.03687 7.98575C5.65213 7.9242 5.29671 7.74359 5.02116 7.46963C4.74561 7.19566 4.56396 6.84228 4.50205 6.45976C4.44014 6.07723 4.50112 5.68503 4.67632 5.33895C4.85152 4.99287 5.13202 4.71052 5.47791 4.53208C5.82381 4.35363 6.21749 4.28817 6.60297 4.345C6.99617 4.40297 7.36019 4.58514 7.64126 4.86459C7.92233 5.14405 8.10555 5.50598 8.16386 5.89692Z" stroke="#E3010F" stroke-width="1.23542" stroke-linecap="round" stroke-linejoin="round"/>
<ellipse cx="8.85801" cy="3.65256" rx="0.694922" ry="0.690763" fill="#E3010F"/>
</g>
<defs>
<clipPath id="clip0_1_416">
<rect width="11.1161" height="11.0522" fill="white" transform="translate(0.751953 0.659668)"/>
</clipPath>
</defs>
</svg>
