<svg width="10" height="8" viewBox="0 0 10 8" fill="none" xmlns="http://www.w3.org/2000/svg">
<path d="M9.81062 0.854637C9.47978 1.02034 9.14894 1.07557 8.76297 1.13081C9.14894 0.909871 9.42464 0.578466 9.53492 0.136592C9.20408 0.357529 8.81811 0.467997 8.37699 0.578466C8.04615 0.24706 7.5499 0.026123 7.05364 0.026123C6.11627 0.026123 5.28917 0.854637 5.28917 1.84885C5.28917 2.01456 5.28917 2.12502 5.34431 2.23549C3.85554 2.18026 2.47705 1.46221 1.59482 0.357529C1.4294 0.6337 1.37426 0.909871 1.37426 1.29651C1.37426 1.90409 1.7051 2.45643 2.20135 2.78784C1.92565 2.78784 1.64996 2.67737 1.37426 2.5669C1.37426 3.45065 1.98079 4.16869 2.80789 4.33439C2.64247 4.38963 2.47705 4.38963 2.31163 4.38963C2.20135 4.38963 2.09107 4.38963 1.98079 4.33439C2.20135 5.05244 2.86303 5.60478 3.69012 5.60478C3.08359 6.10189 2.31163 6.37806 1.4294 6.37806C1.26398 6.37806 1.1537 6.37806 0.988281 6.37806C1.81538 6.87517 2.75275 7.20658 3.74526 7.20658C7.05364 7.20658 8.87325 4.44486 8.87325 2.06979C8.87325 2.01456 8.87325 1.90409 8.87325 1.84885C9.25922 1.57268 9.59006 1.24128 9.81062 0.854637Z" fill="#E3010F"/>
</svg>
